<?xml version="1.0" encoding="UTF-8"?>
<!DOCTYPE svg PUBLIC "-//W3C//DTD SVG 1.1//EN" "http://www.w3.org/Graphics/SVG/1.1/DTD/svg11.dtd">
<svg xmlns="http://www.w3.org/2000/svg" xml:space="preserve" width="40.48mm" height="40.48mm" version="1.1" style="shape-rendering:geometricPrecision; text-rendering:geometricPrecision; image-rendering:optimizeQuality; fill-rule:evenodd; clip-rule:evenodd" viewBox="0 0 1349.93 1349.93"
    xmlns:xlink="http://www.w3.org/1999/xlink"
    xmlns:xodm="http://www.corel.com/coreldraw/odm/2003">
    <defs>
        <style type="text/css">
            <![CDATA[
                .fil0 {fill:#111}
                .fil1 {fill:white;fill-rule:nonzero}
            ]]>
        </style>
    </defs>
    <g id="Capa_x0020_1">
        <metadata id="CorelCorpID_0Corel-Layer"/>
        <path class="fil0" d="M286.92 0l776.09 0c157.81,0 286.92,129.11 286.92,286.92l0 776.09c0,157.81 -129.11,286.92 -286.92,286.92l-776.09 0c-157.81,0 -286.92,-129.11 -286.92,-286.92l0 -776.09c0,-157.81 129.11,-286.92 286.92,-286.92z"/>
        <path class="fil1" d="M679.49 1183.35c-102.8,0 -150.07,-12.67 -228.6,-54.95 -68.04,-36.63 -126.7,-85.66 -158.1,-156.03 -112.51,-252.07 -78.33,-629.07 162.11,-754.36 122.09,-63.61 315.76,-70.6 439.8,-7.54 118.98,60.49 176.55,154.86 224.17,275.94l-97.2 27.77c-44.89,-163.08 -153.05,-253.43 -328.61,-253.43 -69.38,0 -132.34,6.97 -185.25,33.2 -126.56,62.71 -178.42,209.82 -183.52,358.83 -3.71,108.28 13.79,217.58 62.11,296.22 55.27,89.94 170.12,146.82 277.78,146.82 100.84,0 181.98,-17.53 244.56,-76.23 85.22,-79.95 102.98,-207.44 -5.65,-285.17 -33.46,285.57 -420.7,269.28 -420.7,42.3 0,-47.13 18.33,-88.26 54.98,-123.38 72.79,-69.75 182.31,-49.14 273.65,-50.52 -9.63,-43.11 -46.28,-105.57 -116.63,-105.57 -54.21,0 -100.92,13.63 -126.03,55.61l-75.67 -49.09c32.05,-60.18 96.67,-99.7 195.81,-99.7 99.14,0 196.19,64.87 212.28,187.89l4.97 37.99c56.04,22.61 96.38,64.79 124.39,107.29 78.75,119.5 35.33,272.79 -77.13,368.09 -61.36,52 -152.55,78.01 -273.51,78.01zm-106.75 -408.55c0,46.76 49.61,81.73 97.64,81.73 53.58,0 90.42,-15.11 110.51,-45.33 20.09,-30.22 30.14,-66.62 30.14,-109.18 -55.04,-13.99 -150.8,-24.02 -201.55,9.57 -23.9,15.82 -36.73,35.97 -36.73,63.21z"/>
    </g>
</svg>
